<?xml version="1.0" encoding="UTF-8" standalone="no"?>
<!-- Created with Inkscape (http://www.inkscape.org/) -->

<svg
   xmlns:dc="http://purl.org/dc/elements/1.1/"
   xmlns:cc="http://creativecommons.org/ns#"
   xmlns:rdf="http://www.w3.org/1999/02/22-rdf-syntax-ns#"
   xmlns:svg="http://www.w3.org/2000/svg"
   xmlns="http://www.w3.org/2000/svg"
   xmlns:sodipodi="http://sodipodi.sourceforge.net/DTD/sodipodi-0.dtd"
   xmlns:inkscape="http://www.inkscape.org/namespaces/inkscape"
   version="1.1"
   id="svg2"
   width="180"
   height="180"
   viewBox="0 0 180 180"
   sodipodi:docname="binge-nice.svg"
   inkscape:version="0.92.5 (2060ec1f9f, 2020-04-08)"
   inkscape:export-filename="/home/minhaz/Self/ssh-tunnel-manager/icons/binge-nice.png"
   inkscape:export-xdpi="136.53334"
   inkscape:export-ydpi="136.53334">
  <metadata
     id="metadata8">
    <rdf:RDF>
      <cc:Work
         rdf:about="">
        <dc:format>image/svg+xml</dc:format>
        <dc:type
           rdf:resource="http://purl.org/dc/dcmitype/StillImage" />
        <dc:title />
      </cc:Work>
    </rdf:RDF>
  </metadata>
  <defs
     id="defs6" />
  <sodipodi:namedview
     pagecolor="#ffffff"
     bordercolor="#666666"
     borderopacity="1"
     objecttolerance="10"
     gridtolerance="10"
     guidetolerance="10"
     inkscape:pageopacity="0"
     inkscape:pageshadow="2"
     inkscape:window-width="1920"
     inkscape:window-height="1009"
     id="namedview4"
     showgrid="false"
     inkscape:zoom="2"
     inkscape:cx="-9.204623"
     inkscape:cy="71.587557"
     inkscape:window-x="0"
     inkscape:window-y="0"
     inkscape:window-maximized="1"
     inkscape:current-layer="svg2" />
  <style
     id="style7"
     type="text/css">
	.st0{fill:#E30B13;}
	.st1{fill:#FFFFFF;}
	.st2{fill:#ED3D7F;}
	.st3{fill:#FCB833;}
	.st4{fill:#F6921E;}
	.st5{fill:#7B1B67;}
	.st6{fill:#F05A22;}
	.st7{fill:#C30D42;}
</style>
  <rect
     style="fill:#e7292b;fill-opacity:1;stroke:none;stroke-width:19.13393402;stroke-miterlimit:4;stroke-dasharray:none;stroke-opacity:1"
     id="rect53"
     width="180"
     height="180"
     x="0"
     y="0"
     ry="58.5" />
  <g
     id="g31"
     transform="matrix(1.4217604,0,0,1.4217604,12.139136,30.942544)"
     style="fill:#ffffff">
    <path
       inkscape:connector-curvature="0"
       id="XMLID_269_"
       class="st2"
       d="m 22.007767,15.346909 c 0,-13.0956702 8.74162,-19.6602552 26.191355,-19.6602552 h 6.564585 c 21.837288,0 32.755932,8.741612 32.755932,26.1913452 0,8.741617 -2.746408,15.272708 -8.17224,19.660261 5.459326,4.354059 8.17224,10.918644 8.17224,19.660257 0,17.483233 -10.918644,26.191353 -32.755932,26.191353 h -6.564585 c -17.48323,0 -26.191355,-6.56459 -26.191355,-19.660263 z m 32.78943,-6.5645796 h -5.995208 c -3.985638,0 -5.995204,2.1770266 -5.995204,6.5645796 V 35.00717 h 11.990412 c 7.97128,0 11.990412,-4.354063 11.990412,-13.095676 0,-8.741612 -3.985637,-13.1291646 -11.990412,-13.1291646 z m 0,39.3205116 H 42.806785 v 19.727246 c 0,4.387553 2.009566,6.564583 5.995204,6.564583 h 5.995208 c 7.97128,0 11.990412,-4.387551 11.990412,-13.162658 0,-8.741617 -3.985637,-13.129171 -11.990412,-13.129171 z"
       style="fill:#ffffff;fill-opacity:1;stroke-width:3.3492775" />
  </g>
</svg>
