<?xml version="1.0" encoding="UTF-8" standalone="no"?>
<!-- Created with Inkscape (http://www.inkscape.org/) -->

<svg
   xmlns:dc="http://purl.org/dc/elements/1.1/"
   xmlns:cc="http://creativecommons.org/ns#"
   xmlns:rdf="http://www.w3.org/1999/02/22-rdf-syntax-ns#"
   xmlns:svg="http://www.w3.org/2000/svg"
   xmlns="http://www.w3.org/2000/svg"
   xmlns:sodipodi="http://sodipodi.sourceforge.net/DTD/sodipodi-0.dtd"
   xmlns:inkscape="http://www.inkscape.org/namespaces/inkscape"
   version="1.1"
   id="svg2"
   width="180"
   height="180"
   viewBox="0 0 180 180"
   sodipodi:docname="robi-nice.svg"
   inkscape:version="0.92.5 (2060ec1f9f, 2020-04-08)"
   inkscape:export-filename="/home/minhaz/Self/ssh-tunnel-manager/icons/robi-nice.png"
   inkscape:export-xdpi="136.53334"
   inkscape:export-ydpi="136.53334">
  <metadata
     id="metadata8">
    <rdf:RDF>
      <cc:Work
         rdf:about="">
        <dc:format>image/svg+xml</dc:format>
        <dc:type
           rdf:resource="http://purl.org/dc/dcmitype/StillImage" />
        <dc:title></dc:title>
      </cc:Work>
    </rdf:RDF>
  </metadata>
  <defs
     id="defs6" />
  <sodipodi:namedview
     pagecolor="#ffffff"
     bordercolor="#666666"
     borderopacity="1"
     objecttolerance="10"
     gridtolerance="10"
     guidetolerance="10"
     inkscape:pageopacity="0"
     inkscape:pageshadow="2"
     inkscape:window-width="1920"
     inkscape:window-height="1009"
     id="namedview4"
     showgrid="false"
     inkscape:zoom="2"
     inkscape:cx="73.045377"
     inkscape:cy="71.587557"
     inkscape:window-x="0"
     inkscape:window-y="0"
     inkscape:window-maximized="1"
     inkscape:current-layer="g31" />
  <style
     id="style7"
     type="text/css">
	.st0{fill:#E30B13;}
	.st1{fill:#FFFFFF;}
	.st2{fill:#ED3D7F;}
	.st3{fill:#FCB833;}
	.st4{fill:#F6921E;}
	.st5{fill:#7B1B67;}
	.st6{fill:#F05A22;}
	.st7{fill:#C30D42;}
</style>
  <rect
     style="fill:#f2352f;fill-opacity:1;stroke:none;stroke-width:19.13393402;stroke-miterlimit:4;stroke-dasharray:none;stroke-opacity:1"
     id="rect53"
     width="180"
     height="180"
     x="0"
     y="0"
     ry="58.5" />
  <g
     id="g31"
     transform="matrix(1.4217604,0,0,1.4217604,17.348044,27.442545)">
	<g
   id="g13"
   style="fill:#ffffff"
   transform="matrix(1.0491365,0,0,1.0491365,-2.5108755,-4.9754199)">
		<path
   id="path9"
   d="m 37.6,52 c -2.6,-1.1 -3.2,-2.4 -3.4,-3.2 0,0 0,-0.1 0,-0.1 0,0 0,-0.1 0,-0.1 v 0 c 0,0 0,-0.1 0,-0.1 0,0 0,0 0,-0.1 v 0 c 0,-0.1 0,-0.1 0,-0.2 0,-0.1 0,-0.1 0,-0.2 h -0.1 0.1 c 0.1,-0.5 0.3,-1 0.6,-1.5 l 0.1,-0.1 c 1.4,-2 4.7,-3.9 8.7,-5.1 2.8,-0.8 5.6,-1.1 7.8,-0.9 2.2,0.2 3.5,0.9 3.8,2 0.3,1.1 -0.7,2.6 -2.8,4 l -0.1,0.1 1.8,1.3 c 0,0 1.8,1.4 3.8,-0.6 1.9,-2.1 2.6,-4.3 2.1,-6.1 -0.6,-2.2 -2.8,-3.8 -6.1,-4.5 -3.3,-0.7 -7.4,-0.5 -11.5,0.7 -4.1,1.1 -7.7,3.1 -10.2,5.4 -2.5,2.4 -3.5,4.9 -2.9,7 0.2,0.9 0.8,1.7 1.6,2.4 h -27 c -0.4,0 -0.9,0.2 -1.3,0.6 -1,1 -1.6,2.9 -1.6,3.1 v 0.1 H 20.6 V 57 C 20,57.1 10,59.6 4.3,65.4 c -0.8,0.8 -0.9,2 -0.3,3 2.1,3 7.6,8.7 21.2,12.7 h 0.1 V 57 56.9 55.8 H 33 v 21.7 c 0,0.5 0.3,1.1 0.8,1.6 1.3,1.4 3.7,2 3.8,2 h 0.1 V 55.8 H 59.3 V 57 c -0.6,0.1 -10.6,2.6 -16.3,8.4 -0.8,0.8 -0.9,2 -0.3,3 2.1,3 7.6,8.7 21.2,12.7 H 64 V 57 v -0.1 -1.1 0 c 0.4,0 0.9,-0.2 1.3,-0.6 0.9,-0.9 1.5,-2.6 1.6,-3.1 V 52 Z m -17,22.5 C 19.7,74.2 14.4,72.2 10.2,68.1 10,68 10,67.8 10,67.6 c 0,-0.2 0.1,-0.4 0.2,-0.5 1.4,-1.3 5.3,-4.4 10.4,-5.1 z m 38.8,0 C 58.5,74.2 53.2,72.2 49,68.1 48.9,68 48.8,67.8 48.8,67.6 c 0,-0.2 0.1,-0.4 0.2,-0.5 1.4,-1.3 5.3,-4.4 10.4,-5.1 z"
   class="st0"
   inkscape:connector-curvature="0"
   style="fill:#ffffff" />

		<ellipse
   id="ellipse11"
   ry="3.2"
   rx="3.0999999"
   cy="81.699997"
   cx="11.2"
   class="st0"
   style="fill:#ffffff" />

	</g>

	<g
   id="g29"
   transform="matrix(1.0491365,0,0,1.0491365,-2.5108755,-4.9754199)">
		<polygon
   id="polygon15"
   points="101.2,23.6 65.7,3.1 65.7,24.7 81.6,33.9 64.8,43.6 83.4,54.4 101.2,44.1 "
   class="st1"
   style="fill:#ffffff" />

		<polygon
   id="polygon17"
   points="83.4,33.9 66.6,43.6 83.4,53.4 "
   class="st2"
   style="fill:#ed3d7f" />

		<polygon
   id="polygon19"
   points="83.4,14.4 66.6,4.7 66.6,24.2 "
   class="st3"
   style="fill:#fcb833" />

		<polygon
   id="polygon21"
   points="66.6,24.2 83.4,33.9 83.4,14.4 "
   class="st4"
   style="fill:#f6921e" />

		<polygon
   id="polygon23"
   points="83.4,33.9 100.3,43.6 100.3,24.2 "
   class="st5"
   style="fill:#7b1b67" />

		<polygon
   id="polygon25"
   points="100.3,24.2 83.4,14.4 83.4,33.9 "
   class="st6"
   style="fill:#f05a22" />

		<polygon
   id="polygon27"
   points="83.4,33.9 83.4,53.4 100.3,43.6 "
   class="st7"
   style="fill:#c30d42" />

	</g>

</g>
</svg>
